# xmcd
#
# Track frame offsets:
#	182
#	13255
#	23545
#	35752
#	47590
#	58395
#	69742
#	82172
#	91282
#	109860
#	120360
#	134340
#	144255
#	158335
#	167657
#
# Disc length: 2446 seconds
#
# Revision: 1
# Processed by: cddbd v1.4PL0 Copyright (c) Steve Scherf et al.
# Submitted via: audiograbber 1.81.02
#
DISCID=c5098c0f
DTITLE=Rohaci - (2)
DYEAR=1900
DGENRE=Country
TTITLE0=Cim dal vic
TTITLE1=Vsechno prodany
TTITLE2=Cas dobrych dnu
TTITLE3=Dusnej den
TTITLE4=Paperi
TTITLE5=Tam za rekou do lesu
TTITLE6=Poutaji reku
TTITLE7=Lod jak hrom
TTITLE8=Nebe plne koni
TTITLE9=Pisen pro sedivou hlavu
TTITLE10=Copata holka
TTITLE11=Az mi bude
TTITLE12=Holka cvok
TTITLE13=Vodackej panbuh
TTITLE14=Bilej tirak
EXTD=
EXTT0=
EXTT1=
EXTT2=
EXTT3=
EXTT4=
EXTT5=
EXTT6=
EXTT7=
EXTT8=
EXTT9=
EXTT10=
EXTT11=
EXTT12=
EXTT13=
EXTT14=
PLAYORDER=
